<?xml version="1.0" encoding="UTF-8" standalone="no"?>
<svg
   version="1.1"
   id="Layer_1"
   x="0px"
   y="0px"
   viewBox="0 0 122.88 107.41"
   style="enable-background:new 0 0 122.88 107.41"
   xml:space="preserve"
   sodipodi:docname="heart-icon-2.svg"
   inkscape:version="1.2.2 (b0a8486541, 2022-12-01)"
   xmlns:inkscape="http://www.inkscape.org/namespaces/inkscape"
   xmlns:sodipodi="http://sodipodi.sourceforge.net/DTD/sodipodi-0.dtd"
   xmlns="http://www.w3.org/2000/svg"
   xmlns:svg="http://www.w3.org/2000/svg"><defs
     id="defs177" /><sodipodi:namedview
     id="namedview175"
     pagecolor="#ffffff"
     bordercolor="#000000"
     borderopacity="0.25"
     inkscape:showpageshadow="2"
     inkscape:pageopacity="0.0"
     inkscape:pagecheckerboard="0"
     inkscape:deskcolor="#d1d1d1"
     showgrid="false"
     inkscape:zoom="7.3363744"
     inkscape:cx="61.474507"
     inkscape:cy="53.705002"
     inkscape:window-width="1920"
     inkscape:window-height="1011"
     inkscape:window-x="0"
     inkscape:window-y="0"
     inkscape:window-maximized="1"
     inkscape:current-layer="Layer_1" /><style
     type="text/css"
     id="style168">.st0{fill-rule:evenodd;clip-rule:evenodd;}</style><path
     id="path170"
     style="fill:#000000;fill-opacity:1"
     class="st0"
     d="M 91.554324,2.9792398 C 90.128336,2.9459268 88.687994,3.0102556 87.239871,3.1765054 74.899883,4.5865041 69.288925,11.805029 61.278933,20.155021 51.668943,10.80503 45.45884,3.4663489 30.698855,3.2663492 14.178872,3.0563494 -0.17965992,14.716758 0.47033943,32.91674 1.4003385,58.896714 29.60981,79.866132 46.909793,96.526115 L 61.288699,110.36595 78.689089,93.106193 C 85.069083,86.776199 94.179801,78.425013 102.4098,69.905021 109.90979,62.145029 116.68918,54.236655 120.01917,47.586662 130.98791,25.696059 112.94414,3.4789341 91.554324,2.9792398 Z M 85.62073,13.717521 c 17.11185,0.399756 31.54843,18.173065 22.77344,35.685547 -2.66399,5.319995 -8.0879,11.647475 -14.087893,17.855469 C 87.722283,74.07453 80.433709,80.755089 75.329714,85.819084 L 61.409793,99.625724 49.905886,88.555412 C 36.0659,75.227425 13.497542,58.450719 12.753543,37.66674 c -0.52,-14.559985 10.967606,-23.888703 24.183593,-23.720703 11.807988,0.16 16.776852,6.031726 24.464844,13.511719 6.407994,-6.679994 10.895588,-12.455986 20.767578,-13.583985 1.158499,-0.133 2.310382,-0.1829 3.451172,-0.15625 z" /></svg>
