<?xml version="1.0" encoding="UTF-8" standalone="no"?>
<svg
   version="1.1"
   id="Layer_1"
   x="0px"
   y="0px"
   viewBox="0 0 170.52747 76.968412"
   xml:space="preserve"
   sodipodi:docname="infinity2.svg"
   inkscape:version="1.2.2 (b0a8486541, 2022-12-01)"
   width="170.52747"
   height="76.968414"
   xmlns:inkscape="http://www.inkscape.org/namespaces/inkscape"
   xmlns:sodipodi="http://sodipodi.sourceforge.net/DTD/sodipodi-0.dtd"
   xmlns="http://www.w3.org/2000/svg"
   xmlns:svg="http://www.w3.org/2000/svg"><defs
     id="defs177" /><sodipodi:namedview
     id="namedview175"
     pagecolor="#ffffff"
     bordercolor="#000000"
     borderopacity="0.25"
     inkscape:showpageshadow="2"
     inkscape:pageopacity="0.0"
     inkscape:pagecheckerboard="0"
     inkscape:deskcolor="#d1d1d1"
     showgrid="false"
     inkscape:zoom="3.6681872"
     inkscape:cx="62.428657"
     inkscape:cy="62.973885"
     inkscape:window-width="1920"
     inkscape:window-height="1011"
     inkscape:window-x="0"
     inkscape:window-y="0"
     inkscape:window-maximized="1"
     inkscape:current-layer="Layer_1" /><style
     type="text/css"
     id="style168">.st0{fill-rule:evenodd;clip-rule:evenodd;}</style><path
     d="M 128.44,0.15986393 C 118.14667,1.3998639 108.38667,6.3865339 97.54667,15.946534 c -2.64,2.32 -4.45334,4.04 -8.76,8.32 -3.06667,3.05333 -3.52,3.44 -3.74667,3.32 -0.14667,-0.08 -1.33333,-1.24 -2.65333,-2.58667 C 67.13333,9.3865339 57.24,2.8132039 45.78667,0.70653393 38.32,-0.66679607 30.57333,0.19986393 23.53333,3.1865339 11.73334,8.1998639 3.09334,18.746534 0.68,31.093194 c -0.54666,2.76 -0.68,4.24 -0.68,7.53334 0,5.22666 0.72,9.58666 2.34667,14.2 4.50667,12.85333 15.26667,21.69333 28.85333,23.72 8.45333,1.26666 17.82667,-0.34667 26.09333,-4.46667 3.24,-1.61333 5.97334,-3.33333 9.37334,-5.88 4.28,-3.18667 7.41333,-6 14.14666,-12.66667 2.34667,-2.33333 4.36,-4.24 4.45334,-4.24 0.10666,0 1.02666,0.88 2.05333,1.94667 2.29333,2.38667 7.89333,7.78667 10.26667,9.90667 10.93333,9.74666 19.22666,14.06666 29.68,15.50666 0.77333,0.10667 2.58666,0.16 4.66666,0.16 2.84,0 3.72,-0.0533 5.33334,-0.30666 8.66666,-1.33334 16.06666,-5.05334 22.11999,-11.09334 6.09334,-6.09333 9.89334,-13.93333 10.97334,-22.65333 0.25333,-2.06667 0.21333,-7.50667 -0.08,-9.6 -1.04,-7.48 -3.66667,-14.22666 -7.57334,-19.42666 -1.26666,-1.70667 -3.92,-4.4266701 -5.66666,-5.8000001 -4.85333,-3.86667 -11.16,-6.48 -18.37333,-7.59999997 -2.29334,-0.34667 -7.92,-0.45334 -10.22667,-0.17334 z M 44.02667,16.146534 c 4.48,0.94667 9.01333,3.10666 13.46667,6.41333 1.58666,1.17334 3.95999,3.12 5.50666,4.52 1.94667,1.77333 11.73333,11.33333 11.73333,11.46667 0,0.21333 -8.53333,8.65333 -10.6,10.50666 -6.56,5.84 -12.62666,9.53334 -18.33333,11.18667 -2.69333,0.77333 -4.28,0.98667 -7.53333,0.98667 -2.53334,0 -3.13334,-0.04 -4.45334,-0.30667 -7.86666,-1.58667 -13.62666,-6.72 -16.13333,-14.36 -2.13333,-6.52 -1.73333,-12.70667 1.2,-18.46667 3.36,-6.61333 9.41333,-10.98666 16.88,-12.2 0.84,-0.13333 1.94667,-0.17333 3.90667,-0.13333 2.29333,0.04 3,0.10667 4.36,0.38667 z m 91.50666,-0.25334 c 4.36,0.61334 8.06667,2.28001 11.21334,5.04001 5.85333,5.11999 8.65333,14.17333 6.89333,22.35999 -1.78667,8.33334 -8.2,15.08 -16.38667,17.26667 -1.97333,0.52 -3.72,0.73333 -6.05333,0.73333 -4.13333,0 -7.45333,-0.82666 -11.6,-2.86666 -4.36,-2.13334 -8.56,-5.21334 -13.82667,-10.14667 -3.30666,-3.09333 -9.90666,-9.58667 -9.94666,-9.78667 -0.04,-0.21333 6.21333,-6.6 8.90666,-9.08 9.09334,-8.4 16.28,-12.43999 24,-13.52 1.73334,-0.24 5.09334,-0.24 6.8,0 z"
     id="path1041"
     style="fill:#000000;stroke:none;stroke-width:0.133333" /></svg>
